<svg xmlns="http://www.w3.org/2000/svg" width="3886" height="1791" viewBox="0 0 3886 1791" fill="none"><path d="M1774.57 1522.42H1746.1C1732.44 1522.42 1725.04 1516.43 1720.06 1506.67L1621 1318.82H1618.58L1550.55 1506.67C1621 1530.92 1707.68 1544.16 1778.27 1544.16C1788.52 1544.16 1798.62 1543.88 1808.58 1543.32L1818.97 1516.85C1805.74 1520.33 1790.79 1522.28 1774.57 1522.28" fill="#DE1B1B"></path><path d="M708.069 1207.5V1209.87C708.069 1367.34 789.763 1431.58 884.977 1431.58C959.27 1431.58 1032.14 1400.09 1073.13 1320.1H1075.55C1043.38 1472.69 946.888 1544.18 802.145 1544.18C646.301 1544.18 498.996 1452.07 498.996 1238.86C498.996 1014.77 645.02 925.03 809.546 925.03C940.625 925.03 1080.53 985.649 1080.53 1180.61C1080.53 1184.23 1080.53 1192.73 1079.25 1207.22H708.069V1207.5ZM708.069 1185.76H889.958C891.239 1170.01 891.239 1154.27 891.239 1149.39C891.239 990.666 857.793 948.302 807.126 948.302C745.215 948.302 710.631 1010.04 708.211 1185.76" fill="#DE1B1B"></path><path d="M1531.97 959.178H1379.82V1363.86C1379.82 1418.35 1404.59 1449.84 1445.43 1449.84C1477.6 1449.84 1503.65 1429.22 1517.17 1404.97L1519.59 1406.23C1507.2 1474.09 1456.54 1544.32 1338.98 1544.32C1231.38 1544.32 1178.15 1487.33 1178.15 1378.35V959.178H1110.12V934.931H1165.77C1185.55 934.931 1191.81 934.931 1204.05 921.553L1377.26 731.335H1379.68V934.791H1531.83V959.039L1531.97 959.178Z" fill="#DE1B1B"></path><path d="M3064.98 1534.58H2923.94L2761.84 1074.3C2752.02 1046.43 2747.03 1031.93 2735.79 1010.06L2697.36 937.314V934.945H3006.63V937.314L2964.5 1006.43C2957.1 1018.56 2955.82 1022.18 2960.8 1036.67L3084.48 1402.48L3179.7 1129.9C3188.38 1106.91 3184.68 1102.03 3176 1083.91L3102.98 937.314V934.945H3315.76V937.314L3231.65 1079.04C3216.84 1103.28 3210.58 1111.78 3203.18 1133.52L3064.56 1534.44L3064.98 1534.58Z" fill="#DE1B1B"></path><path d="M3512.8 1207.5V1209.87C3512.8 1367.34 3594.49 1431.58 3689.71 1431.58C3763.86 1431.58 3836.87 1400.09 3877.71 1320.1H3880.13C3847.97 1472.69 3751.47 1544.18 3606.73 1544.18C3450.89 1544.18 3303.58 1452.07 3303.58 1238.86C3303.58 1014.77 3449.61 925.03 3614.13 925.03C3745.21 925.03 3885.12 985.649 3885.12 1180.61C3885.12 1184.23 3885.12 1192.73 3883.83 1207.22H3512.66L3512.8 1207.5ZM3512.8 1185.76H3694.69C3695.97 1170.01 3695.97 1154.27 3695.97 1149.39C3695.97 990.666 3662.52 948.302 3611.85 948.302C3549.94 948.302 3515.36 1010.04 3512.8 1185.76Z" fill="#DE1B1B"></path><path d="M166.803 792.923C166.803 777.176 165.522 773.553 154.421 763.938L72.8696 687.85V685.481H484.042V687.85L402.49 763.938C391.389 773.553 390.108 777.176 390.108 792.923V1392.42C390.108 1631.83 256.751 1781.64 1.28091 1790.14L0 1787.77C115.994 1729.8 166.661 1616.09 166.661 1463.77V792.923H166.803Z" fill="#DE1B1B"></path><path d="M1917.95 1175.99L1838.82 1142.13C1765.81 1110.63 1724.96 1085.13 1724.96 1031.9C1724.96 975.042 1770.79 947.172 1825.16 947.172H1842.52C1859.88 947.172 1863.58 953.164 1870.98 965.288L1967.48 1133.63H1969.9L2039.21 957.902C1958.8 933.654 1882.09 925.154 1821.46 925.154C1664.33 925.154 1567.84 1001.52 1567.84 1116.63C1567.84 1202.61 1619.78 1257.09 1687.81 1288.59L1771.93 1327.33C1819.46 1348.79 1852.2 1364.81 1870.98 1384.46L1947.84 1189.65C1938.3 1184.91 1928.2 1180.31 1917.95 1175.85" fill="#DE1B1B"></path><path d="M2713.61 1434.09C2706.21 1448.59 2695.11 1455.83 2679.02 1455.83C2654.26 1455.83 2643.16 1432.84 2645.58 1385.6L2652.98 1213.64C2652.98 1210.01 2654.26 1182.14 2654.26 1170.02C2654.26 1076.79 2632.06 1017.43 2592.35 981.054C2547.8 939.945 2483.47 925.312 2400.64 925.312C2317.81 925.312 2233.55 929.214 2150.72 958.339L2220.03 1134.06H2222.45L2331.33 962.938C2338.73 949.56 2340.01 948.445 2364.77 948.445C2429.1 948.445 2455.15 1004.19 2455.15 1087.8V1093.79L2452.73 1223.39C2419.28 1200.4 2374.74 1190.64 2321.51 1190.64C2296.32 1190.64 2270.98 1194.54 2246.93 1202.21L2306.7 1354.1C2306.7 1354.1 2306.7 1353.41 2306.7 1352.99C2306.7 1282.75 2342.57 1228.27 2406.9 1228.27C2422.98 1228.27 2437.78 1230.64 2452.73 1235.51L2450.31 1412.35V1413.61C2434.23 1437.86 2407.04 1455.97 2379.86 1455.97C2365.91 1455.97 2353.1 1451.93 2342.43 1444.13L2372.74 1521.19C2408.75 1500.7 2436.08 1467.68 2450.45 1426.99C2454.15 1503.35 2514.78 1544.46 2585.37 1544.46C2644.72 1544.46 2686.85 1517.84 2706.63 1477.85C2714.03 1463.36 2716.6 1445.1 2716.6 1434.23H2714.18L2713.61 1434.09Z" fill="#DE1B1B"></path><path d="M2412.03 1621.52H2411.96L2412.03 1621.67V1621.52Z" fill="#DE1B1B"></path><path d="M2405.75 489.689V431.021L2164.08 242.476V64.9389L2109.29 0H2080.68L2025.75 64.9389V242.476L1784.22 431.021V489.689L2035.28 409.839L2057.34 633.223L1986.89 700.81V731.468L2094.91 700.81L2203.08 731.468V700.81L2132.63 633.223L2154.55 409.839L2405.75 489.689Z" fill="#DE1B1B"></path></svg>