<svg xmlns="http://www.w3.org/2000/svg" width="217" height="167" viewBox="0 0 217 167" fill="none"><mask id="mask0_460_6988" style="mask-type:alpha" maskUnits="userSpaceOnUse" x="0" y="0" width="217" height="167"><rect width="217" height="167" fill="url(#paint0_linear_460_6988)"></rect></mask><g mask="url(#mask0_460_6988)"><g opacity="0.16"><circle cx="16.0211" cy="18.0211" r="8.02115" fill="#FFAA00"></circle><circle cx="42.7555" cy="18.0211" r="8.02115" fill="#FFAA00"></circle><circle cx="69.4977" cy="18.0211" r="8.02115" fill="#FFAA00"></circle><circle cx="96.2321" cy="18.0211" r="8.02115" fill="#FFAA00"></circle><circle cx="122.966" cy="18.0211" r="8.02115" fill="#FFAA00"></circle><circle cx="149.709" cy="18.0211" r="8.02115" fill="#FFAA00"></circle><circle cx="176.443" cy="18.0211" r="8.02115" fill="#FFAA00"></circle><circle cx="203.177" cy="18.0211" r="8.02115" fill="#FFAA00"></circle><circle cx="16.0211" cy="44.7594" r="8.02115" fill="#FFAA00"></circle><circle cx="42.7555" cy="44.7594" r="8.02115" fill="#FFAA00"></circle><circle cx="69.4977" cy="44.7594" r="8.02115" fill="#FFAA00"></circle><circle cx="96.2321" cy="44.7594" r="8.02115" fill="#FFAA00"></circle><circle cx="122.966" cy="44.7594" r="8.02115" fill="#FFAA00"></circle><circle cx="149.709" cy="44.7594" r="8.02115" fill="#FFAA00"></circle><circle cx="176.443" cy="44.7594" r="8.02115" fill="#FFAA00"></circle><circle cx="203.177" cy="44.7594" r="8.02115" fill="#FFAA00"></circle><circle cx="16.0211" cy="71.4938" r="8.02115" fill="#FFAA00"></circle><circle cx="42.7555" cy="71.4938" r="8.02115" fill="#FFAA00"></circle><circle cx="69.4977" cy="71.4938" r="8.02115" fill="#FFAA00"></circle><circle cx="96.2321" cy="71.4938" r="8.02115" fill="#FFAA00"></circle><circle cx="122.966" cy="71.4938" r="8.02115" fill="#FFAA00"></circle><circle cx="149.709" cy="71.4938" r="8.02115" fill="#FFAA00"></circle><circle cx="176.443" cy="71.4938" r="8.02115" fill="#FFAA00"></circle><circle cx="203.177" cy="71.4938" r="8.02115" fill="#FFAA00"></circle><circle cx="16.0211" cy="98.2321" r="8.02115" fill="#FFAA00"></circle><circle cx="42.7555" cy="98.2321" r="8.02115" fill="#FFAA00"></circle><circle cx="69.4977" cy="98.2321" r="8.02115" fill="#FFAA00"></circle><circle cx="96.2321" cy="98.2321" r="8.02115" fill="#FFAA00"></circle><circle cx="122.966" cy="98.2321" r="8.02115" fill="#FFAA00"></circle><circle cx="149.709" cy="98.2321" r="8.02115" fill="#FFAA00"></circle><circle cx="176.443" cy="98.2321" r="8.02115" fill="#FFAA00"></circle><circle cx="203.177" cy="98.2321" r="8.02115" fill="#FFAA00"></circle><circle cx="16.0211" cy="124.97" r="8.02115" fill="#FFAA00"></circle><circle cx="42.7555" cy="124.97" r="8.02115" fill="#FFAA00"></circle><circle cx="69.4977" cy="124.97" r="8.02115" fill="#FFAA00"></circle><circle cx="96.2321" cy="124.97" r="8.02115" fill="#FFAA00"></circle><circle cx="122.966" cy="124.97" r="8.02115" fill="#FFAA00"></circle><circle cx="149.709" cy="124.97" r="8.02115" fill="#FFAA00"></circle><circle cx="176.443" cy="124.97" r="8.02115" fill="#FFAA00"></circle><circle cx="203.177" cy="124.97" r="8.02115" fill="#FFAA00"></circle><circle cx="16.0211" cy="151.709" r="8.02115" fill="#FFAA00"></circle><circle cx="42.7555" cy="151.709" r="8.02115" fill="#FFAA00"></circle><circle cx="69.4977" cy="151.709" r="8.02115" fill="#FFAA00"></circle><circle cx="96.2321" cy="151.709" r="8.02115" fill="#FFAA00"></circle><circle cx="122.966" cy="151.709" r="8.02115" fill="#FFAA00"></circle><circle cx="149.709" cy="151.709" r="8.02115" fill="#FFAA00"></circle><circle cx="176.443" cy="151.709" r="8.02115" fill="#FFAA00"></circle><circle cx="203.177" cy="151.709" r="8.02115" fill="#FFAA00"></circle></g></g><defs><linearGradient id="paint0_linear_460_6988" x1="108.5" y1="0" x2="108.5" y2="167" gradientUnits="userSpaceOnUse"><stop offset="0.12464" stop-color="#D9D9D9" stop-opacity="0.219841"></stop><stop offset="0.597633" stop-color="#D9D9D9"></stop></linearGradient></defs></svg>